<?xml version="1.0" encoding="UTF-8" standalone="no"?>
<!-- Generator: Adobe Illustrator 15.0.0, SVG Export Plug-In . SVG Version: 6.00 Build 0)  -->

<svg
   version="1.1"
   id="Layer_1"
   x="0px"
   y="0px"
   width="263"
   height="117"
   viewBox="0 0 263 117"
   enable-background="new 0 0 400 300"
   xml:space="preserve"
   sodipodi:docname="logo.svg"
   inkscape:version="1.2.2 (732a01da63, 2022-12-09)"
   xmlns:inkscape="http://www.inkscape.org/namespaces/inkscape"
   xmlns:sodipodi="http://sodipodi.sourceforge.net/DTD/sodipodi-0.dtd"
   xmlns="http://www.w3.org/2000/svg"
   xmlns:svg="http://www.w3.org/2000/svg"><defs
   id="defs15" /><sodipodi:namedview
   id="namedview13"
   pagecolor="#ffffff"
   bordercolor="#000000"
   borderopacity="0.25"
   inkscape:showpageshadow="2"
   inkscape:pageopacity="0.0"
   inkscape:pagecheckerboard="0"
   inkscape:deskcolor="#d1d1d1"
   showgrid="false"
   inkscape:zoom="2.7133333"
   inkscape:cx="200.12285"
   inkscape:cy="91.584768"
   inkscape:window-width="1920"
   inkscape:window-height="1001"
   inkscape:window-x="-9"
   inkscape:window-y="-9"
   inkscape:window-maximized="1"
   inkscape:current-layer="Layer_1" />
<g
   id="g10"
   transform="matrix(0.99691071,0,0,0.99767258,-67.881644,-91.151357)"
   style="fill:#ffffff">
	<path
   fill-rule="evenodd"
   clip-rule="evenodd"
   fill="#231f20"
   d="m 165.893,105.636 c 2.293,6.195 2.595,7.697 2.595,12.906 0,12.38 -9.101,23.499 -25.287,30.892 -12.006,5.484 -22.924,7.548 -39.914,7.548 H 74.904 l 10.634,-45.901 h 25.046 l -7.46,31.536 h 6.744 c 19.951,0 32.994,-8.427 32.994,-21.318 0,-10.138 -9.065,-15.663 -25.696,-15.663 H 86.743 l 3.336,-14.272 h 97.062 l 13.554,42.262 34.13,-42.262 h 57.902 c 13.127,0 26.473,4.917 33.408,12.311 3.987,4.251 5.772,8.848 5.772,14.867 0,12.417 -9.076,23.5 -25.298,30.893 -12.027,5.482 -22.944,7.547 -39.904,7.547 h -28.382 l 10.611,-45.901 h 25.07 l -7.461,31.536 h 6.72 c 8.709,0 15.791,-1.195 20.189,-3.404 7.862,-3.95 12.473,-10.187 12.827,-17.357 0.511,-10.317 -8.848,-16.219 -25.719,-16.219 h -31.534 l -57.741,65.688 -23.679,-65.688 h -1.713 z"
   id="path2"
   style="fill:#ffffff" />
	<path
   fill-rule="evenodd"
   clip-rule="evenodd"
   fill="#231f20"
   d="m 285.149,179.418 c -32.262,-5.295 -85.217,-7.175 -136.448,-4.845 -24.932,1.134 -47.611,3.902 -65.208,7.958 -11.236,2.591 -15.401,4.911 -15.401,8.58 0,4.791 8.39,7.921 31.423,11.726 31.925,5.273 85.05,7.145 136.455,4.81 25.97,-1.181 45.512,-3.572 65.208,-7.981 11.263,-2.521 15.392,-4.816 15.392,-8.554 -10e-4,-4.808 -8.317,-7.904 -31.421,-11.694 z m -150.792,21.1 H 131.6 l -12.257,-18.652 h 6.488 l 6.812,10.706 6.094,-10.706 h 6.649 z m 28.78,0.001 h -5.91 v -18.652 h 5.91 z m 23.447,-0.001 h -8.689 v -18.652 h 8.596 c 6.884,0 12.582,4.188 12.582,9.246 0,5.566 -5.097,9.406 -12.489,9.406 z m 40.617,0 h -14.435 v -18.652 h 14.203 v 3.337 h -8.271 v 3.963 h 7.784 v 3.336 h -7.784 v 4.704 h 8.502 v 3.312 z m 26.278,0.254 c -7.755,0 -13.695,-4.152 -13.695,-9.569 0,-5.434 5.917,-9.569 13.695,-9.569 8.131,0 13.785,3.925 13.785,9.569 0,5.639 -5.663,9.569 -13.785,9.569 z"
   id="path4"
   style="fill:#ffffff" />
	<path
   fill-rule="evenodd"
   clip-rule="evenodd"
   fill="#231f20"
   d="m 183.248,197.205 v -12.003 h 2.433 c 4.333,0 7.5,2.293 7.716,5.585 0.254,3.866 -2.971,6.418 -8.11,6.418 z"
   id="path6"
   style="fill:#ffffff" />
	<path
   fill-rule="evenodd"
   clip-rule="evenodd"
   fill="#231f20"
   d="m 261.029,191.042 c 0,3.659 -3.066,6.163 -7.551,6.163 -4.297,0 -7.572,-2.741 -7.37,-6.163 0.214,-3.603 3.133,-5.84 7.623,-5.84 3.956,0 7.298,2.676 7.298,5.84"
   id="path8"
   style="fill:#ffffff" />
</g>
</svg>
